<?xml version="1.0"?>
<svg xmlns="http://www.w3.org/2000/svg" xmlns:xlink="http://www.w3.org/1999/xlink" version="1.1" id="Layer_1" x="0px" y="0px" viewBox="0 0 508.646 508.646" style="enable-background:new 0 0 508.646 508.646;" xml:space="preserve" width="512px" height="512px"><g><g>
	<g>
		<g>
			<g>
				<g>
					<rect x="222.475" y="350.329" width="15.924" height="15" data-original="#000000" class="active-path" data-old_color="#000000" fill="#16A085"/>
				</g>
				<g>
					<rect x="286.171" y="350.329" width="15.924" height="15" data-original="#000000" class="active-path" data-old_color="#000000" fill="#16A085"/>
				</g>
			</g>
			<g>
				<polygon points="476.797,429.025 445.412,429.025 445.412,414.025 461.797,414.025 461.797,397.639       476.797,397.639     " data-original="#000000" class="active-path" data-old_color="#000000" fill="#16A085"/>
			</g>
		</g>
		<g>
			<rect x="158.778" y="191.088" width="15.924" height="15" data-original="#000000" class="active-path" data-old_color="#000000" fill="#16A085"/>
		</g>
		<g>
			<path d="M150.816,398.101c-27.932,0-51.077,20.832-54.749,47.772H23.613l6.712-80.544h176.226v-15H89.313     l9.263-30.104l-14.337-4.411l-10.62,34.516H16.523L7.311,460.873h88.756c3.673,26.941,26.817,47.772,54.749,47.772     s51.077-20.832,54.749-47.772h40.795v-15h-40.795C201.893,418.933,178.749,398.101,150.816,398.101z M150.816,493.646     c-22.206,0-40.272-18.066-40.272-40.272c0-22.206,18.066-40.272,40.272-40.272s40.272,18.066,40.272,40.272     C191.088,475.58,173.022,493.646,150.816,493.646z" data-original="#000000" class="active-path" data-old_color="#000000" fill="#16A085"/>
			<path d="M508.646,370.646l-20.317-20.317h-54.361l-55.734-103.506h-87.389     c16.865-25.214,26.714-55.499,26.714-88.044C317.557,71.228,246.329,0,158.778,0C122.321,0,86.705,12.676,58.492,35.692     l9.481,11.623C93.518,26.477,125.766,15,158.778,15c79.28,0,143.779,64.499,143.779,143.778s-64.499,143.778-143.779,143.778     c-26.951,0-53.321-7.64-76.258-22.094l-5.067-3.193L54.81,299.913v-42.059l-1.973-2.151C28.438,229.099,15,194.677,15,158.778     c0-36.688,13.83-71.625,38.942-98.375L43.006,50.137C15.273,79.678,0,118.261,0,158.778c0,38.685,14.114,75.807,39.81,104.872     v72.475l39.862-39.862c24.098,13.949,51.319,21.293,79.106,21.293c32.545,0,62.831-9.849,88.044-26.713v27.638h-40.272v15h55.272     v-54.007c6.333-5.415,12.236-11.318,17.651-17.651h7.159v71.658h39.348v-15h-24.348v-56.658h67.641l30.508,56.658h-49.915v15     h57.992l17.149,31.848h57.107l11.53,11.53v69.014h-65.143c-3.673-26.94-26.817-47.772-54.75-47.772     c-27.932,0-51.077,20.832-54.749,47.772h-48.757v15h48.757c3.673,26.941,26.817,47.772,54.749,47.772     c27.933,0,51.077-20.832,54.75-47.772h80.143V370.646z M373.753,493.646c-22.206,0-40.272-18.066-40.272-40.272     c0-22.206,18.066-40.272,40.272-40.272c22.207,0,40.272,18.066,40.272,40.272C414.025,475.58,395.959,493.646,373.753,493.646z" data-original="#000000" class="active-path" data-old_color="#000000" fill="#16A085"/>
			<rect x="254.323" y="350.329" width="15.924" height="15" data-original="#000000" class="active-path" data-old_color="#000000" fill="#16A085"/>
			<path d="M150.816,429.949c-12.916,0-23.424,10.508-23.424,23.424s10.508,23.424,23.424,23.424     s23.424-10.508,23.424-23.424S163.732,429.949,150.816,429.949z M150.816,461.797c-4.645,0-8.424-3.779-8.424-8.424     s3.779-8.424,8.424-8.424s8.424,3.779,8.424,8.424S155.461,461.797,150.816,461.797z" data-original="#000000" class="active-path" data-old_color="#000000" fill="#16A085"/>
			<path d="M373.753,429.949c-12.916,0-23.424,10.508-23.424,23.424s10.508,23.424,23.424,23.424     s23.424-10.508,23.424-23.424S386.669,429.949,373.753,429.949z M373.753,461.797c-4.645,0-8.424-3.779-8.424-8.424     s3.779-8.424,8.424-8.424s8.424,3.779,8.424,8.424S378.398,461.797,373.753,461.797z" data-original="#000000" class="active-path" data-old_color="#000000" fill="#16A085"/>
			<path d="M79.62,206.55v31.386h158.316V206.55c0-33.572-21.018-62.31-50.579-73.798     c11.372-8.648,18.731-22.314,18.731-37.67c0-26.087-21.223-47.31-47.31-47.31s-47.31,21.223-47.31,47.31     c0,15.357,7.359,29.022,18.731,37.67C100.638,144.24,79.62,172.978,79.62,206.55z M126.468,95.082     c0-17.816,14.494-32.31,32.31-32.31s32.31,14.494,32.31,32.31s-14.494,32.31-32.31,32.31S126.468,112.898,126.468,95.082z      M158.778,142.392c35.377,0,64.158,28.781,64.158,64.158v16.386H94.62V206.55c0-0.155,0.011-0.307,0.012-0.462h48.223v-15H96.515     C103.454,163.158,128.732,142.392,158.778,142.392z" data-original="#000000" class="active-path" data-old_color="#000000" fill="#16A085"/>
			<rect x="190.626" y="191.088" width="15.924" height="15" data-original="#000000" class="active-path" data-old_color="#000000" fill="#16A085"/>
		</g>
	</g>
</g></g> </svg>
