<?xml version="1.0"?>
<svg xmlns="http://www.w3.org/2000/svg" xmlns:xlink="http://www.w3.org/1999/xlink" version="1.1" id="Capa_1" x="0px" y="0px" viewBox="0 0 512 512" style="enable-background:new 0 0 512 512;" xml:space="preserve" width="512px" height="512px" class=""><g><g>
	<g>
		<path d="M281.479,27.021H34.521C15.486,27.021,0,42.507,0,61.541V346.5c0,15.496,10.264,28.638,24.35,32.99v22.781    c0,18.001,14.646,32.646,32.647,32.646s32.647-14.646,32.647-32.646v-21.25h136.844v21.25c0,18.001,14.646,32.646,32.647,32.646    c18.001,0,32.647-14.646,32.647-32.646V379.45C305.8,375.057,316,361.946,316,346.5V61.541    C316,42.507,300.514,27.021,281.479,27.021z M20,111.684h142.565l-65.258,65.258c-3.905,3.905-3.905,10.237,0,14.143    c1.953,1.952,4.512,2.929,7.071,2.929c2.559,0,5.119-0.977,7.071-2.929l79.4-79.4h64.914L100.446,267.003H49.218L20,237.784    V111.684z M69.644,402.271c0,6.974-5.673,12.646-12.647,12.646s-12.647-5.673-12.647-12.646v-21.25h25.294V402.271z     M271.782,402.271c0,6.974-5.673,12.646-12.647,12.646s-12.647-5.673-12.647-12.646v-21.25h25.294V402.271z M296,346.5    c0,8.007-6.514,14.521-14.521,14.521H34.521C26.514,361.021,20,354.506,20,346.5v-80.43l18.004,18.005    c1.875,1.875,4.419,2.929,7.071,2.929H270.85c2.652,0,5.196-1.054,7.071-2.929L296,265.995V346.5z M296,237.71l-29.292,29.292    H128.731l155.318-155.317H296V237.71z M296.001,91.685H20V61.541c0-8.007,6.514-14.52,14.521-14.52H281.48    c8.007,0,14.521,6.514,14.521,14.521V91.685z" data-original="#000000" class="active-path" data-old_color="#000000" fill="#FFC100"/>
	</g>
</g><g>
	<g>
		<path d="M86.68,201.709c-1.86-1.86-4.44-2.93-7.07-2.93s-5.21,1.069-7.07,2.93c-1.86,1.859-2.93,4.439-2.93,7.07    c0,2.63,1.07,5.21,2.93,7.069c1.86,1.87,4.44,2.931,7.07,2.931s5.21-1.061,7.07-2.931c1.86-1.859,2.93-4.439,2.93-7.069    C89.61,206.148,88.54,203.568,86.68,201.709z" data-original="#000000" class="active-path" data-old_color="#000000" fill="#FFC100"/>
	</g>
</g><g>
	<g>
		<path d="M502,301.899c5.523,0,10-4.478,10-10V193.67c0-22.538-18.336-40.875-40.875-40.875h-6.344    c3.589-6.058,5.658-13.119,5.658-20.656v-10.567c0-22.418-18.238-40.656-40.656-40.656c-22.418,0-40.656,18.238-40.656,40.656    v10.567c0,7.538,2.069,14.598,5.658,20.656h-6.344c-22.539,0-40.875,18.337-40.875,40.875v98.229c0,5.522,4.477,10,10,10h25.854    v123.017h-12.048c-13.007,0-23.589,10.582-23.589,23.59v26.473c0,5.522,4.477,10,10,10h144c5.523,0,10-4.478,10-10v-26.473    c0-13.008-10.582-23.59-23.589-23.59h-12.048V301.899H502z M409.127,121.573c0-11.39,9.266-20.656,20.656-20.656    s20.656,9.267,20.656,20.656v10.567c0,11.39-9.266,20.656-20.656,20.656s-20.656-9.267-20.656-20.656V121.573z M488.193,444.917    c1.98,0,3.59,1.61,3.59,3.59v16.473h-124v-16.473c0-1.979,1.61-3.59,3.589-3.59H488.193z M429.783,308.365    c-5.523,0-10,4.478-10,10v106.552H403.42V278.505h52.726v146.412h-16.363V318.365    C439.783,312.842,435.306,308.365,429.783,308.365z M466.146,192.464c-5.523,0-10,4.478-10,10v56.039H403.42v-56.039    c0-5.522-4.477-10-10-10s-10,4.478-10,10v79.435h-15.854V193.67c0-11.511,9.364-20.875,20.875-20.875h41.342h41.342    c11.511,0,20.875,9.364,20.875,20.875v88.229h-15.854v-79.435C476.146,196.943,471.669,192.464,466.146,192.464z" data-original="#000000" class="active-path" data-old_color="#000000" fill="#FFC100"/>
	</g>
</g><g>
	<g>
		<path d="M200.089,313.3h-84.117c-5.523,0-10,4.478-10,10c0,5.522,4.477,10,10,10h84.117c5.523,0,10-4.478,10-10    C210.089,317.779,205.612,313.3,200.089,313.3z" data-original="#000000" class="active-path" data-old_color="#000000" fill="#FFC100"/>
	</g>
</g><g>
	<g>
		<path d="M71.25,316.229c-1.86-1.86-4.44-2.93-7.07-2.93c-2.64,0-5.22,1.07-7.08,2.93c-1.86,1.86-2.92,4.44-2.92,7.07    s1.06,5.21,2.92,7.07c1.86,1.859,4.44,2.93,7.08,2.93c2.63,0,5.21-1.07,7.07-2.93s2.93-4.44,2.93-7.07    S73.11,318.089,71.25,316.229z" data-original="#000000" class="active-path" data-old_color="#000000" fill="#FFC100"/>
	</g>
</g><g>
	<g>
		<path d="M258.82,316.229c-1.86-1.86-4.44-2.93-7.07-2.93s-5.21,1.07-7.07,2.93s-2.93,4.44-2.93,7.07s1.07,5.21,2.93,7.07    c1.86,1.859,4.44,2.93,7.07,2.93s5.21-1.07,7.07-2.93s2.93-4.44,2.93-7.07S260.68,318.089,258.82,316.229z" data-original="#000000" class="active-path" data-old_color="#000000" fill="#FFC100"/>
	</g>
</g></g> </svg>
